<svg width="201" height="47" viewBox="0 0 201 47" fill="none" xmlns="http://www.w3.org/2000/svg">
<path d="M5.83333 37.9444H20.3333" stroke="currentColor" stroke-width="1.5" stroke-linecap="square" stroke-linejoin="round"/>
<path d="M1 44.3889H30" stroke="currentColor" stroke-width="2" stroke-linecap="square" stroke-linejoin="round"/>
<path d="M18.7222 44.3889C21.7133 44.3889 24.5818 43.2007 26.6968 41.0857C28.8118 38.9707 30 36.1022 30 33.1111C30 30.1201 28.8118 27.2515 26.6968 25.1365C24.5818 23.0215 21.7133 21.8333 18.7222 21.8333H17.1111" stroke="currentColor" stroke-width="2" stroke-linecap="round" stroke-linejoin="round"/>
<path d="M10.6667 26.6667H15.5" stroke="currentColor" stroke-width="2" stroke-linecap="round" stroke-linejoin="round"/>
<path d="M17.1111 33.1111V21.0278C17.1111 19.9595 16.8989 18.9351 16.5213 18.1797C16.1436 17.4244 15.6313 17 15.0972 17H11.0694C10.5353 17 10.0231 17.4244 9.64541 18.1797C9.26773 18.9351 9.05556 19.9595 9.05556 21.0278V33.1111" stroke="currentColor" stroke-width="2" stroke-linecap="round" stroke-linejoin="round"/>
<path d="M58.96 45H52.28V42.68C50.52 44.04 48.44 45.4 46.2 45.4C43.12 45.4 41.96 42.96 41.96 40.92C41.96 38.48 43.52 37.28 47.84 35.84L52.28 34.36V30.04C52.28 25.92 51.36 24.12 49.16 24.12C45.16 24.12 48.2 29.6 44.6 29.6C43.08 29.6 42.56 28.68 42.56 27.84C42.56 25.48 46.88 23 50.64 23C54.4 23 55.96 25.12 55.96 28.96V39.72C55.96 43.92 56.12 43.96 58.96 44.24V45ZM48.12 43.28C49.6 43.28 51.96 42.32 52.28 39.72V35.76L49.28 36.72C46.52 37.64 45.72 38.88 45.72 40.48C45.72 41.88 46.44 43.28 48.12 43.28ZM71.2813 44.24V45H60.0413V44.24C63.2813 44 63.4013 43.92 63.4013 39.72V29.44C63.4013 26.84 62.4413 26.56 59.6413 26.56V25.8C62.7613 25.8 64.6013 24.88 66.3613 23L67.0813 23.2V26.64C69.0813 24 70.7213 23 72.6013 23C74.3613 23 75.6013 23.84 75.6013 25.2C75.6013 26.28 74.8413 27.32 73.6413 27.32C71.9613 27.32 72.0413 25.24 70.5613 25.24C68.8013 25.24 67.0813 27.76 67.0813 33.08V39.72C67.0813 43.92 67.2413 43.96 71.2813 44.24ZM87.4494 42.32L87.8894 43.04C86.8094 44.32 85.2094 45.4 83.0894 45.4C80.5694 45.4 78.7294 43.84 78.7294 41.04V25.04L76.2894 24.64V23.8C79.2894 23.8 81.3294 21.92 81.6494 19H82.4094V23.24L87.2894 23.8V24.64L82.4094 25.12V40.48C82.4094 42.76 83.1694 43.64 84.6094 43.64C85.8094 43.64 86.7294 43.04 87.4494 42.32ZM93.675 20C92.155 20 90.955 18.84 90.955 17.32C90.955 15.8 92.155 14.6 93.675 14.6C95.195 14.6 96.355 15.8 96.355 17.32C96.355 18.84 95.195 20 93.675 20ZM98.675 44.24V45H88.635V44.24C91.875 44 91.995 43.92 91.995 39.72V29.44C91.995 26.84 91.035 26.56 88.235 26.56V25.8C91.355 25.8 93.195 24.88 95.355 23L95.675 23.2V39.72C95.675 43.92 95.835 43.96 98.675 44.24ZM110.246 44.24V45H99.4059V44.24C102.646 44 102.766 43.92 102.766 39.72V25.04L100.206 24.64V23.8L102.766 23.36V21.84C102.766 16.56 106.686 12.64 110.406 12.64C112.246 12.64 113.726 13.52 113.726 14.96C113.726 15.8 113.206 16.8 111.726 16.8C109.246 16.8 110.686 14.04 108.926 14.04C107.326 14.04 106.446 16.32 106.446 21.28V23.28L110.806 23.8V24.64L106.446 25.12V39.72C106.446 43.92 106.606 43.96 110.246 44.24ZM128.648 45H121.968V42.68C120.208 44.04 118.128 45.4 115.888 45.4C112.808 45.4 111.648 42.96 111.648 40.92C111.648 38.48 113.208 37.28 117.528 35.84L121.968 34.36V30.04C121.968 25.92 121.048 24.12 118.848 24.12C114.848 24.12 117.888 29.6 114.288 29.6C112.768 29.6 112.248 28.68 112.248 27.84C112.248 25.48 116.567 23 120.328 23C124.088 23 125.648 25.12 125.648 28.96V39.72C125.648 43.92 125.808 43.96 128.648 44.24V45ZM117.808 43.28C119.288 43.28 121.648 42.32 121.968 39.72V35.76L118.968 36.72C116.208 37.64 115.408 38.88 115.408 40.48C115.408 41.88 116.128 43.28 117.808 43.28ZM138.849 24.16C136.009 24.16 134.449 27.6 134.449 32.28C134.449 37.96 136.609 43.12 140.489 43.12C142.329 43.12 144.489 41.88 146.169 40.12L146.649 40.76C144.929 42.84 142.529 45.4 138.769 45.4C134.249 45.4 130.529 41.72 130.529 34.72C130.529 28.08 133.649 23 140.369 23C144.129 23 145.849 24.52 145.849 26C145.849 27.08 145.089 28.24 143.729 28.24C141.129 28.24 141.929 24.16 138.849 24.16ZM158.738 42.32L159.178 43.04C158.098 44.32 156.498 45.4 154.378 45.4C151.858 45.4 150.018 43.84 150.018 41.04V25.04L147.578 24.64V23.8C150.578 23.8 152.618 21.92 152.938 19H153.698V23.24L158.578 23.8V24.64L153.698 25.12V40.48C153.698 42.76 154.458 43.64 155.898 43.64C157.098 43.64 158.018 43.04 158.738 42.32ZM189.652 45H182.572V41.92C179.172 44.4 177.812 45.4 175.572 45.4C172.292 45.4 170.892 43.2 170.892 40.24V29.44C170.892 26.84 169.932 26.56 167.132 26.56V25.8C170.252 25.8 172.092 24.88 174.252 23L174.572 23.2V38.36C174.572 41.96 176.412 43.16 178.132 43.16C180.212 43.16 182.572 41 182.572 39.28V29.44C182.572 26.84 181.612 26.56 178.812 26.56V25.8C181.932 25.8 183.772 24.88 185.932 23L186.252 23.2V39.72C186.252 43.92 186.412 43.96 189.652 44.24V45ZM195.589 20C194.069 20 192.869 18.84 192.869 17.32C192.869 15.8 194.069 14.6 195.589 14.6C197.109 14.6 198.269 15.8 198.269 17.32C198.269 18.84 197.109 20 195.589 20ZM200.589 44.24V45H190.549V44.24C193.789 44 193.909 43.92 193.909 39.72V29.44C193.909 26.84 192.949 26.56 190.149 26.56V25.8C193.269 25.8 195.109 24.88 197.269 23L197.589 23.2V39.72C197.589 43.92 197.749 43.96 200.589 44.24Z" fill="currentColor"/>
</svg>
